<svg xmlns="http://www.w3.org/2000/svg" xmlns:xlink="http://www.w3.org/1999/xlink"
  viewBox="0 0 216.33 206.28">
  <metadata>
    <dc:creator xmlns:dc="http://purl.org/dc/elements/1.1/">Mark Elliott</dc:creator>
    <cc:license xmlns:cc="http://creativecommons.org/ns#"
      href="http://creativecommons.org/licenses/by-sa/4.0/">
      CC BY-SA 4.0
    </cc:license>
  </metadata>
  <defs>
    <style>.a{stroke:#fcee21;stroke-miterlimit:10;fill:url(#a);}</style>
    <linearGradient id="a" x1="28.35" y1="43.21" x2="179.75" y2="194.61"
      gradientTransform="translate(2.64 0.76) rotate(0.01)" gradientUnits="userSpaceOnUse">
      <stop offset="0" stop-color="#f6d10d" />
      <stop offset="0.64" stop-color="#f7a019" />
      <stop offset="1" stop-color="#f7891e" />
    </linearGradient>
  </defs>
  <path class="a"
    d="M74.72,65.34l30.17-62a4,4,0,0,1,7.21,0l29.6,61.94a4,4,0,0,0,3.08,2.25l66.8,8.78a4,4,0,0,1,2.25,6.86l-48.9,46.94a4,4,0,0,0-1.16,3.61l12.41,67a4,4,0,0,1-5.83,4.26l-60-32.09a4,4,0,0,0-3.77,0l-60,32.1a4,4,0,0,1-5.83-4.25L53,133.64A4,4,0,0,0,51.82,130L2.21,83.1a4,4,0,0,1,2.24-6.88l67.19-8.66A4,4,0,0,0,74.72,65.34Z" />
</svg>